<svg width="20px" height="20px" viewBox="0 0 1024 1024" fill="none">
    <g id="Layer_1">
        <rect x="0.173" y="0.462" width="1024.001" height="1024"/>
    </g>
    <g id="Layer_2">
    </g>
    <g id="Layer_3">
        <g style="fill: currentColor;">
            <path d="M68.198,383.617l35.77,23.273l45.583,29.683l75.455,49.137l45.583,29.702l177.954,115.875
			c13.121,8.545,30.061,12.875,50.356,12.875c32.282,0,69.603-11.362,99.814-30.382l145.181-91.354l46.888-29.494l79.878-50.271
			l46.889-29.494L936,401.559c33.748-21.25,53.315-49.023,53.655-76.23c0.265-19.02-8.792-35.6-25.485-46.755L566.157,13.245
			c-13.404-8.942-31.1-13.65-51.217-13.65c-32.726,0-69.754,12.346-99.049,33.011L93.777,259.99
			c-32.698,23.065-51.169,51.935-50.659,79.179C43.459,357.526,52.374,373.332,68.198,383.617z M122.921,301.28L445.036,73.896
			c20.778-14.671,47.558-23.746,69.905-23.746c9.963,0,18.169,1.815,23.16,5.143L936.151,320.64
			c3.005,2.023,2.986,3.138,2.986,4.027c-0.076,6.164-8.167,20.305-30.06,34.088l-37.624,23.689l-46.869,29.512l-79.896,50.234
			l-46.869,29.512l-126.01,79.274c-22.178,13.973-50.121,22.632-72.912,22.632c-14.057,0-20.626-3.29-22.792-4.69L315.046,484.046
			l-45.592-29.683l-75.464-49.156l-45.583-29.683l-52.625-34.277c-2.099-1.36-2.099-1.984-2.127-3.043
			C93.532,331.776,101.227,316.594,122.921,301.28z"/>
            <path d="M955.757,470.245l-38.209-25.505l-46.889,29.494l57.059,38.058c3.007,2.004,2.988,3.12,2.988,4.027
			c-0.075,6.163-8.167,20.324-30.041,34.089l-36.547,22.988L817.25,602.91l-253.854,159.7c-22.177,13.971-50.13,22.629-72.93,22.629
			c-14.047,0-20.608-3.271-22.773-4.67L193.053,601.717l-45.592-29.681l-60.103-39.154c-2.099-1.343-2.108-1.968-2.136-3.026
			c-0.104-6.465,7.581-21.647,29.276-36.924l35.052-24.767l-45.583-29.683l-18.613,13.159
			c-32.708,23.084-51.17,51.936-50.659,79.161c0.34,18.358,9.254,34.125,25.088,44.447l43.239,28.189l45.592,29.664L440.12,822.921
			c13.111,8.544,30.061,12.855,50.347,12.855c32.291,0,69.603-11.344,99.852-30.363l273.007-171.781l46.868-29.514l17.373-10.927
			c33.767-21.23,53.316-49.005,53.676-76.211C981.507,497.961,972.45,481.361,955.757,470.245z"/>
            <path d="M955.757,659.76l-45.563-30.345l-46.868,29.475l64.393,42.937c3.007,2.023,2.988,3.138,2.988,4.027
			c-0.075,6.145-8.167,20.306-30.041,34.088L563.396,952.162c-22.177,13.953-50.13,22.632-72.93,22.632
			c-14.047,0-20.608-3.29-22.773-4.689L87.359,722.434c-2.099-1.38-2.108-1.984-2.136-3.044
			c-0.104-6.465,7.581-21.609,29.276-36.924l34.116-24.105l-45.592-29.683l-17.668,12.479
			c-32.708,23.085-51.17,51.953-50.659,79.197c0.34,18.357,9.254,34.145,25.088,44.431l380.336,247.671
			c13.111,8.564,30.061,12.875,50.347,12.875c32.291,0,69.603-11.344,99.852-30.383l337.248-212.221
			c33.767-21.214,53.316-49.024,53.676-76.231C981.507,687.496,972.45,670.895,955.757,659.76z"/>
        </g>
    </g>
</svg>
